<svg width="100" height="100" viewBox="0 0 100 100" fill="none" xmlns="http://www.w3.org/2000/svg">
<g clip-path="url(#clip0)">
<path d="M31.6 3.5C5.90001 13.6 -6.59999 42.7 3.50001 68.4C13.6 94.1 42.7 106.7 68.4 96.5L65.3 88.6C44 97 19.9 86.6 11.5 65.3C3.10001 44 13.5 19.9 34.8 11.5L31.6 3.5Z" fill="#FF4A4A"/>
<path d="M42.3 39.6001C48 35.3001 56.2 36.5001 60.4 42.3001C64.7 48.0001 63.5 56.2001 57.7 60.4001L61.8 65.9001C70.6 59.4001 72.4 46.9001 65.9 38.2001C59.4 29.4001 46.9 27.6001 38.2 34.1001L42.3 39.6001Z" fill="#CE9912"/>
<path d="M82 35.6999C74.1 17.9999 53.4 10.0999 35.7 17.9999C18 25.8999 10.1 46.5999 18 64.2999L25.6 60.8999C19.6 47.3999 25.6 31.5999 39.1 25.5999C52.6 19.5999 68.4 25.5999 74.4 39.0999L82 35.6999Z" fill="#007FC7"/>
</g>
<defs>
<clipPath id="clip0">
<rect width="100" height="100" fill="white"/>
</clipPath>
</defs>
</svg>

